<svg xmlns="http://www.w3.org/2000/svg" width="1080" height="1920"><path d="M500,1028L585,1150L642,1024Z" fill="#f05c9f" stroke="#f05c9f" stroke-width="1.51"/><path d="M500,1028L460,1168L585,1150Z" fill="#f160a0" stroke="#f160a0" stroke-width="1.51"/><path d="M642,1024L650,919L500,1028Z" fill="#f25f9f" stroke="#f25f9f" stroke-width="1.51"/><path d="M642,1024L768,1034L650,919Z" fill="#ec549d" stroke="#ec549d" stroke-width="1.51"/><path d="M751,1173L768,1034L642,1024Z" fill="#e7499b" stroke="#e7499b" stroke-width="1.51"/><path d="M585,1150L751,1173L642,1024Z" fill="#e94d9c" stroke="#e94d9c" stroke-width="1.51"/><path d="M699,1293L751,1173L585,1150Z" fill="#e4439a" stroke="#e4439a" stroke-width="1.51"/><path d="M650,919L472,886L500,1028Z" fill="#f76aa1" stroke="#f76aa1" stroke-width="1.51"/><path d="M500,1028L367,1162L460,1168Z" fill="#f16ba4" stroke="#f16ba4" stroke-width="1.51"/><path d="M317,993L367,1162L500,1028Z" fill="#f476a7" stroke="#f476a7" stroke-width="1.51"/><path d="M511,1334L585,1150L460,1168Z" fill="#ed579e" stroke="#ed579e" stroke-width="1.51"/><path d="M511,1334L613,1299L585,1150Z" fill="#e84c9c" stroke="#e84c9c" stroke-width="1.51"/><path d="M650,919L608,783L472,886Z" fill="#f56ea3" stroke="#f56ea3" stroke-width="1.51"/><path d="M768,1034L784,921L650,919Z" fill="#eb519c" stroke="#eb519c" stroke-width="1.51"/><path d="M835,1051L784,921L768,1034Z" fill="#e24998" stroke="#e24998" stroke-width="1.51"/><path d="M613,1299L699,1293L585,1150Z" fill="#e5459a" stroke="#e5459a" stroke-width="1.51"/><path d="M751,1173L835,1051L768,1034Z" fill="#e04298" stroke="#e04298" stroke-width="1.51"/><path d="M903,1196L835,1051L751,1173Z" fill="#d83994" stroke="#d83994" stroke-width="1.51"/><path d="M346,907L317,993L500,1028Z" fill="#f87da8" stroke="#f87da8" stroke-width="1.51"/><path d="M322,1256L511,1334L460,1168Z" fill="#ec63a2" stroke="#ec63a2" stroke-width="1.51"/><path d="M613,1299L613,1410L699,1293Z" fill="#de3f97" stroke="#de3f97" stroke-width="1.51"/><path d="M472,886L346,907L500,1028Z" fill="#f879a6" stroke="#f879a6" stroke-width="1.51"/><path d="M729,766L608,783L650,919Z" fill="#f068a3" stroke="#f068a3" stroke-width="1.51"/><path d="M472,886L429,718L346,907Z" fill="#f986ab" stroke="#f986ab" stroke-width="1.51"/><path d="M367,1162L322,1256L460,1168Z" fill="#ef6ea5" stroke="#ef6ea5" stroke-width="1.51"/><path d="M183,1189L322,1256L367,1162Z" fill="#f079a9" stroke="#f079a9" stroke-width="1.51"/><path d="M784,921L729,766L650,919Z" fill="#ec5da0" stroke="#ec5da0" stroke-width="1.51"/><path d="M866,871L729,766L784,921Z" fill="#e5589d" stroke="#e5589d" stroke-width="1.51"/><path d="M511,1334L613,1410L613,1299Z" fill="#e14798" stroke="#e14798" stroke-width="1.51"/><path d="M483,1461L613,1410L511,1334Z" fill="#df4996" stroke="#df4996" stroke-width="1.51"/><path d="M317,993L234,994L367,1162Z" fill="#f582aa" stroke="#f582aa" stroke-width="1.51"/><path d="M346,907L234,994L317,993Z" fill="#fa89ac" stroke="#fa89ac" stroke-width="1.51"/><path d="M835,1051L866,871L784,921Z" fill="#e04b97" stroke="#e04b97" stroke-width="1.51"/><path d="M900,1300L903,1196L751,1173Z" fill="#d12e90" stroke="#d12e90" stroke-width="1.51"/><path d="M835,1051L982,995L866,871Z" fill="#d74393" stroke="#d74393" stroke-width="1.51"/><path d="M900,1300L751,1173L699,1293Z" fill="#d83194" stroke="#d83194" stroke-width="1.51"/><path d="M608,783L429,718L472,886Z" fill="#f97da8" stroke="#f97da8" stroke-width="1.51"/><path d="M346,907L238,858L234,994Z" fill="#fa8fae" stroke="#fa8fae" stroke-width="1.51"/><path d="M582,649L429,718L608,783Z" fill="#f97fa9" stroke="#f97fa9" stroke-width="1.51"/><path d="M303,745L238,858L346,907Z" fill="#fa94b0" stroke="#fa94b0" stroke-width="1.51"/><path d="M759,1424L900,1300L699,1293Z" fill="#d22b91" stroke="#d22b91" stroke-width="1.51"/><path d="M613,1410L759,1424L699,1293Z" fill="#d73594" stroke="#d73594" stroke-width="1.51"/><path d="M322,1387L483,1461L511,1334Z" fill="#e15a9c" stroke="#e15a9c" stroke-width="1.51"/><path d="M613,1410L758,1523L759,1424Z" fill="#d02e90" stroke="#d02e90" stroke-width="1.51"/><path d="M322,1256L322,1387L511,1334Z" fill="#e766a1" stroke="#e766a1" stroke-width="1.51"/><path d="M191,1286L322,1387L322,1256Z" fill="#ea74a6" stroke="#ea74a6" stroke-width="1.51"/><path d="M234,994L183,1189L367,1162Z" fill="#f482ab" stroke="#f482ab" stroke-width="1.51"/><path d="M64,1059L183,1189L234,994Z" fill="#f68fae" stroke="#f68fae" stroke-width="1.51"/><path d="M903,1196L982,995L835,1051Z" fill="#d1388f" stroke="#d1388f" stroke-width="1.51"/><path d="M1051,1176L982,995L903,1196Z" fill="#c7308c" stroke="#c7308c" stroke-width="1.51"/><path d="M729,766L582,649L608,783Z" fill="#f273a6" stroke="#f273a6" stroke-width="1.51"/><path d="M721,611L582,649L729,766Z" fill="#f075a7" stroke="#f075a7" stroke-width="1.51"/><path d="M429,718L303,745L346,907Z" fill="#fa91af" stroke="#fa91af" stroke-width="1.51"/><path d="M326,650L303,745L429,718Z" fill="#fa99b3" stroke="#fa99b3" stroke-width="1.51"/><path d="M183,1189L191,1286L322,1256Z" fill="#ef7caa" stroke="#ef7caa" stroke-width="1.51"/><path d="M866,871L900,757L729,766Z" fill="#e15b9c" stroke="#e15b9c" stroke-width="1.51"/><path d="M1015,932L900,757L866,871Z" fill="#d64e94" stroke="#d64e94" stroke-width="1.51"/><path d="M582,649L429,628L429,718Z" fill="#f98cae" stroke="#f98cae" stroke-width="1.51"/><path d="M982,995L1015,932L866,871Z" fill="#d14391" stroke="#d14391" stroke-width="1.51"/><path d="M1180,1069L1015,932L982,995Z" fill="#c1398d" stroke="#c1398d" stroke-width="1.51"/><path d="M483,1461L603,1531L613,1410Z" fill="#d84293" stroke="#d84293" stroke-width="1.51"/><path d="M488,1551L603,1531L483,1461Z" fill="#d64693" stroke="#d64693" stroke-width="1.51"/><path d="M900,757L721,611L729,766Z" fill="#e767a2" stroke="#e767a2" stroke-width="1.51"/><path d="M582,649L510,528L429,628Z" fill="#fa8dad" stroke="#fa8dad" stroke-width="1.51"/><path d="M429,628L326,650L429,718Z" fill="#fa98b1" stroke="#fa98b1" stroke-width="1.51"/><path d="M303,745L216,728L238,858Z" fill="#fa9db3" stroke="#fa9db3" stroke-width="1.51"/><path d="M309,1607L483,1461L322,1387Z" fill="#db609c" stroke="#db609c" stroke-width="1.51"/><path d="M309,1607L488,1551L483,1461Z" fill="#d65496" stroke="#d65496" stroke-width="1.51"/><path d="M1023,1314L1051,1176L903,1196Z" fill="#c0238a" stroke="#c0238a" stroke-width="1.51"/><path d="M1023,1314L903,1196L900,1300Z" fill="#c51f8a" stroke="#c51f8a" stroke-width="1.51"/><path d="M909,1550L758,1523L743,1687Z" fill="#bc1886" stroke="#bc1886" stroke-width="1.51"/><path d="M603,1531L758,1523L613,1410Z" fill="#d1348f" stroke="#d1348f" stroke-width="1.51"/><path d="M759,1424L894,1466L900,1300Z" fill="#c5208a" stroke="#c5208a" stroke-width="1.51"/><path d="M86,849L64,1059L234,994Z" fill="#fb99b1" stroke="#fb99b1" stroke-width="1.51"/><path d="M326,650L216,728L303,745Z" fill="#fba1b5" stroke="#fba1b5" stroke-width="1.51"/><path d="M86,849L234,994L238,858Z" fill="#fb99b1" stroke="#fb99b1" stroke-width="1.51"/><path d="M183,1189L60,1194L191,1286Z" fill="#f087ac" stroke="#f087ac" stroke-width="1.51"/><path d="M758,1523L894,1466L759,1424Z" fill="#c5208a" stroke="#c5208a" stroke-width="1.51"/><path d="M1047,1390L1023,1314L900,1300Z" fill="#ba1a86" stroke="#ba1a86" stroke-width="1.51"/><path d="M64,1059L60,1194L183,1189Z" fill="#f48fb0" stroke="#f48fb0" stroke-width="1.51"/><path d="M191,1286L187,1432L322,1387Z" fill="#e575a5" stroke="#e575a5" stroke-width="1.51"/><path d="M112,1331L187,1432L191,1286Z" fill="#e87ea8" stroke="#e87ea8" stroke-width="1.51"/><path d="M60,1194L112,1331L191,1286Z" fill="#ef85ac" stroke="#ef85ac" stroke-width="1.51"/><path d="M216,728L86,849L238,858Z" fill="#fba1b4" stroke="#fba1b4" stroke-width="1.51"/><path d="M634,454L510,528L582,649Z" fill="#f889ac" stroke="#f889ac" stroke-width="1.51"/><path d="M429,628L338,480L326,650Z" fill="#fba0b5" stroke="#fba0b5" stroke-width="1.51"/><path d="M216,728L55,717L86,849Z" fill="#fbabb8" stroke="#fbabb8" stroke-width="1.51"/><path d="M326,650L198,660L216,728Z" fill="#fba6b7" stroke="#fba6b7" stroke-width="1.51"/><path d="M207,525L198,660L326,650Z" fill="#fbabb9" stroke="#fbabb9" stroke-width="1.51"/><path d="M900,757L895,587L721,611Z" fill="#e169a0" stroke="#e169a0" stroke-width="1.51"/><path d="M1015,932L1016,731L900,757Z" fill="#cf5094" stroke="#cf5094" stroke-width="1.51"/><path d="M1106,725L1016,731L1015,932Z" fill="#c64f93" stroke="#c64f93" stroke-width="1.51"/><path d="M894,1466L1047,1390L900,1300Z" fill="#bb1685" stroke="#bb1685" stroke-width="1.51"/><path d="M1023,1314L1127,1260L1051,1176Z" fill="#b62088" stroke="#b62088" stroke-width="1.51"/><path d="M1031,651L895,587L900,757Z" fill="#d56099" stroke="#d56099" stroke-width="1.51"/><path d="M721,611L704,503L582,649Z" fill="#f27caa" stroke="#f27caa" stroke-width="1.51"/><path d="M863,511L704,503L721,611Z" fill="#eb76a7" stroke="#eb76a7" stroke-width="1.51"/><path d="M1051,1176L1180,1069L982,995Z" fill="#bc328c" stroke="#bc328c" stroke-width="1.51"/><path d="M1047,1390L1127,1260L1023,1314Z" fill="#b11a86" stroke="#b11a86" stroke-width="1.51"/><path d="M743,1687L758,1523L603,1531Z" fill="#c6278b" stroke="#c6278b" stroke-width="1.51"/><path d="M758,1523L909,1550L894,1466Z" fill="#bc1685" stroke="#bc1685" stroke-width="1.51"/><path d="M894,1466L985,1520L1047,1390Z" fill="#b20e82" stroke="#b20e82" stroke-width="1.51"/><path d="M1127,1260L1150,1178L1051,1176Z" fill="#b22489" stroke="#b22489" stroke-width="1.51"/><path d="M243,1600L322,1387L187,1432Z" fill="#dd6ea0" stroke="#dd6ea0" stroke-width="1.51"/><path d="M243,1600L309,1607L322,1387Z" fill="#d8679c" stroke="#d8679c" stroke-width="1.51"/><path d="M584,1734L743,1687L603,1531Z" fill="#c4308c" stroke="#c4308c" stroke-width="1.51"/><path d="M1150,1178L1180,1069L1051,1176Z" fill="#b32a8a" stroke="#b32a8a" stroke-width="1.51"/><path d="M112,1331L87,1436L187,1432Z" fill="#e47ea7" stroke="#e47ea7" stroke-width="1.51"/><path d="M-32,1402L87,1436L112,1331Z" fill="#e684ac" stroke="#e684ac" stroke-width="1.51"/><path d="M909,1550L985,1520L894,1466Z" fill="#b30b81" stroke="#b30b81" stroke-width="1.51"/><path d="M1245,1287L1150,1178L1127,1260Z" fill="#a81e87" stroke="#a81e87" stroke-width="1.51"/><path d="M1180,1069L1163,896L1015,932Z" fill="#bb3b8d" stroke="#bb3b8d" stroke-width="1.51"/><path d="M1016,731L1031,651L900,757Z" fill="#cf5a97" stroke="#cf5a97" stroke-width="1.51"/><path d="M704,503L634,454L582,649Z" fill="#f483ab" stroke="#f483ab" stroke-width="1.51"/><path d="M510,528L338,480L429,628Z" fill="#fa9bb2" stroke="#fa9bb2" stroke-width="1.51"/><path d="M736,367L634,454L704,503Z" fill="#f284ac" stroke="#f284ac" stroke-width="1.51"/><path d="M64,1059L-94,1118L60,1194Z" fill="#f697b7" stroke="#f697b7" stroke-width="1.51"/><path d="M60,1194L-42,1311L112,1331Z" fill="#ef8bb1" stroke="#ef8bb1" stroke-width="1.51"/><path d="M86,849L-45,1016L64,1059Z" fill="#fca0b8" stroke="#fca0b8" stroke-width="1.51"/><path d="M-70,887L-45,1016L86,849Z" fill="#fda7bc" stroke="#fda7bc" stroke-width="1.51"/><path d="M895,587L863,511L721,611Z" fill="#e36fa2" stroke="#e36fa2" stroke-width="1.51"/><path d="M1106,725L1031,651L1016,731Z" fill="#c65896" stroke="#c65896" stroke-width="1.51"/><path d="M198,660L55,717L216,728Z" fill="#fbadb9" stroke="#fbadb9" stroke-width="1.51"/><path d="M52,616L55,717L198,660Z" fill="#fbb4bd" stroke="#fbb4bd" stroke-width="1.51"/><path d="M65,1586L243,1600L187,1432Z" fill="#d9749f" stroke="#d9749f" stroke-width="1.51"/><path d="M1032,524L863,511L895,587Z" fill="#d76a9c" stroke="#d76a9c" stroke-width="1.51"/><path d="M466,367L338,480L510,528Z" fill="#fb9fb3" stroke="#fb9fb3" stroke-width="1.51"/><path d="M1163,896L1106,725L1015,932Z" fill="#c04891" stroke="#c04891" stroke-width="1.51"/><path d="M199,1692L376,1675L309,1607Z" fill="#cd639a" stroke="#cd639a" stroke-width="1.51"/><path d="M309,1607L376,1675L488,1551Z" fill="#d05896" stroke="#d05896" stroke-width="1.51"/><path d="M584,1734L603,1531L488,1551Z" fill="#ce3d8f" stroke="#ce3d8f" stroke-width="1.51"/><path d="M909,1550L969,1688L985,1520Z" fill="#ab017e" stroke="#ab017e" stroke-width="1.51"/><path d="M338,480L207,525L326,650Z" fill="#fbabb9" stroke="#fbabb9" stroke-width="1.51"/><path d="M87,1436L65,1586L187,1432Z" fill="#dd7ba4" stroke="#dd7ba4" stroke-width="1.51"/><path d="M-94,1118L-42,1311L60,1194Z" fill="#f394b8" stroke="#f394b8" stroke-width="1.51"/><path d="M376,1675L454,1719L488,1551Z" fill="#cc5094" stroke="#cc5094" stroke-width="1.51"/><path d="M497,1790L454,1719L370,1859Z" fill="#c04c92" stroke="#c04c92" stroke-width="1.51"/><path d="M454,1719L584,1734L488,1551Z" fill="#ca4390" stroke="#ca4390" stroke-width="1.51"/><path d="M55,717L-34,792L86,849Z" fill="#fcafbd" stroke="#fcafbd" stroke-width="1.51"/><path d="M-93,636L-34,792L55,717Z" fill="#fdb9c4" stroke="#fdb9c4" stroke-width="1.51"/><path d="M-45,1016L-94,1118L64,1059Z" fill="#f99eba" stroke="#f99eba" stroke-width="1.51"/><path d="M-34,792L-70,887L86,849Z" fill="#fdadbe" stroke="#fdadbe" stroke-width="1.51"/><path d="M-173,1117L-94,1118L-45,1016Z" fill="#f8a1bf" stroke="#f8a1bf" stroke-width="1.51"/><path d="M207,525L52,616L198,660Z" fill="#fcb4bb" stroke="#fcb4bb" stroke-width="1.51"/><path d="M-42,1311L-32,1402L112,1331Z" fill="#ea89b1" stroke="#ea89b1" stroke-width="1.51"/><path d="M-227,1321L-32,1402L-42,1311Z" fill="#eb91b8" stroke="#eb91b8" stroke-width="1.51"/><path d="M1180,1069L1263,984L1163,896Z" fill="#b0378a" stroke="#b0378a" stroke-width="1.51"/><path d="M1292,738L1154,616L1106,725Z" fill="#b55494" stroke="#b55494" stroke-width="1.51"/><path d="M1270,1134L1263,984L1180,1069Z" fill="#a82f88" stroke="#a82f88" stroke-width="1.51"/><path d="M1270,1134L1180,1069L1150,1178Z" fill="#aa2a88" stroke="#aa2a88" stroke-width="1.51"/><path d="M1245,1287L1127,1260L1173,1452Z" fill="#a11683" stroke="#a11683" stroke-width="1.51"/><path d="M1245,1287L1270,1134L1150,1178Z" fill="#a42286" stroke="#a42286" stroke-width="1.51"/><path d="M1173,1452L1127,1260L1047,1390Z" fill="#a71583" stroke="#a71583" stroke-width="1.51"/><path d="M634,454L466,367L510,528Z" fill="#fb93af" stroke="#fb93af" stroke-width="1.51"/><path d="M338,480L197,385L207,525Z" fill="#fcb4bb" stroke="#fcb4bb" stroke-width="1.51"/><path d="M207,525L31,454L52,616Z" fill="#fcbdc0" stroke="#fcbdc0" stroke-width="1.51"/><path d="M619,347L466,367L634,454Z" fill="#f993af" stroke="#f993af" stroke-width="1.51"/><path d="M863,511L736,367L704,503Z" fill="#eb7ca8" stroke="#eb7ca8" stroke-width="1.51"/><path d="M1031,651L1032,524L895,587Z" fill="#d0649b" stroke="#d0649b" stroke-width="1.51"/><path d="M1154,616L1032,524L1031,651Z" fill="#c46099" stroke="#c46099" stroke-width="1.51"/><path d="M1154,616L1031,651L1106,725Z" fill="#c05a97" stroke="#c05a97" stroke-width="1.51"/><path d="M1131,1596L1173,1452L985,1520Z" fill="#9e057d" stroke="#9e057d" stroke-width="1.51"/><path d="M985,1520L1173,1452L1047,1390Z" fill="#a60e81" stroke="#a60e81" stroke-width="1.51"/><path d="M854,374L736,367L863,511Z" fill="#e67aa6" stroke="#e67aa6" stroke-width="1.51"/><path d="M736,367L619,347L634,454Z" fill="#f38bad" stroke="#f38bad" stroke-width="1.51"/><path d="M743,1687L890,1719L909,1550Z" fill="#b11283" stroke="#b11283" stroke-width="1.51"/><path d="M759,1789L890,1719L743,1687Z" fill="#b01785" stroke="#b01785" stroke-width="1.51"/><path d="M-32,1402L65,1586L87,1436Z" fill="#e081a9" stroke="#e081a9" stroke-width="1.51"/><path d="M243,1600L199,1692L309,1607Z" fill="#d0689b" stroke="#d0689b" stroke-width="1.51"/><path d="M645,1815L759,1789L743,1687Z" fill="#b62388" stroke="#b62388" stroke-width="1.51"/><path d="M454,1719L497,1790L584,1734Z" fill="#c3418f" stroke="#c3418f" stroke-width="1.51"/><path d="M370,1859L454,1719L376,1675Z" fill="#c45395" stroke="#c45395" stroke-width="1.51"/><path d="M65,1586L199,1692L243,1600Z" fill="#d2719e" stroke="#d2719e" stroke-width="1.51"/><path d="M890,1719L969,1688L909,1550Z" fill="#a9057f" stroke="#a9057f" stroke-width="1.51"/><path d="M1292,738L1106,725L1163,896Z" fill="#b44c90" stroke="#b44c90" stroke-width="1.51"/><path d="M890,1719L889,1817L969,1688Z" fill="#a2067e" stroke="#a2067e" stroke-width="1.51"/><path d="M645,1815L743,1687L584,1734Z" fill="#bb2c8b" stroke="#bb2c8b" stroke-width="1.51"/><path d="M-94,1118L-173,1117L-42,1311Z" fill="#f59bbd" stroke="#f59bbd" stroke-width="1.51"/><path d="M-227,1027L-173,1117L-45,1016Z" fill="#fba6c1" stroke="#fba6c1" stroke-width="1.51"/><path d="M-227,1027L-45,1016L-212,899Z" fill="#fdabc3" stroke="#fdabc3" stroke-width="1.51"/><path d="M710,180L584,231L619,347Z" fill="#f694b3" stroke="#f694b3" stroke-width="1.51"/><path d="M1032,524L854,374L863,511Z" fill="#da709e" stroke="#da709e" stroke-width="1.51"/><path d="M994,323L854,374L1032,524Z" fill="#d5719e" stroke="#d5719e" stroke-width="1.51"/><path d="M497,1790L645,1815L584,1734Z" fill="#bd378c" stroke="#bd378c" stroke-width="1.51"/><path d="M1263,984L1300,866L1163,896Z" fill="#ad3c8b" stroke="#ad3c8b" stroke-width="1.51"/><path d="M1270,1134L1300,866L1263,984Z" fill="#a63487" stroke="#a63487" stroke-width="1.51"/><path d="M470,235L345,344L466,367Z" fill="#fba9b8" stroke="#fba9b8" stroke-width="1.51"/><path d="M466,367L345,344L338,480Z" fill="#fbaab8" stroke="#fbaab8" stroke-width="1.51"/><path d="M969,1688L1131,1596L985,1520Z" fill="#a0007c" stroke="#a0007c" stroke-width="1.51"/><path d="M1173,1452L1321,1413L1245,1287Z" fill="#96107f" stroke="#96107f" stroke-width="1.51"/><path d="M345,344L197,385L338,480Z" fill="#fcb4bb" stroke="#fcb4bb" stroke-width="1.51"/><path d="M1300,866L1292,738L1163,896Z" fill="#ac448d" stroke="#ac448d" stroke-width="1.51"/><path d="M-190,718L-212,899L-70,887Z" fill="#feb7c8" stroke="#feb7c8" stroke-width="1.51"/><path d="M52,616L-93,636L55,717Z" fill="#fcbbc4" stroke="#fcbbc4" stroke-width="1.51"/><path d="M-100,461L-93,636L52,616Z" fill="#fdc4c9" stroke="#fdc4c9" stroke-width="1.51"/><path d="M-212,899L-45,1016L-70,887Z" fill="#feacc2" stroke="#feacc2" stroke-width="1.51"/><path d="M-109,1582L65,1586L-32,1402Z" fill="#dc83ab" stroke="#dc83ab" stroke-width="1.51"/><path d="M-190,718L-70,887L-34,792Z" fill="#fdb7c6" stroke="#fdb7c6" stroke-width="1.51"/><path d="M909,1964L889,1817L759,1789Z" fill="#9f0f80" stroke="#9f0f80" stroke-width="1.51"/><path d="M759,1789L889,1817L890,1719Z" fill="#a71182" stroke="#a71182" stroke-width="1.51"/><path d="M969,1688L1136,1734L1131,1596Z" fill="#94017b" stroke="#94017b" stroke-width="1.51"/><path d="M199,1692L370,1859L376,1675Z" fill="#c55f98" stroke="#c55f98" stroke-width="1.51"/><path d="M497,1790L515,1944L645,1815Z" fill="#b8398c" stroke="#b8398c" stroke-width="1.51"/><path d="M645,1815L701,1987L759,1789Z" fill="#ae2488" stroke="#ae2488" stroke-width="1.51"/><path d="M167,1797L370,1859L199,1692Z" fill="#c3659a" stroke="#c3659a" stroke-width="1.51"/><path d="M197,385L31,454L207,525Z" fill="#fcbebe" stroke="#fcbebe" stroke-width="1.51"/><path d="M1267,1585L1321,1413L1173,1452Z" fill="#8e077b" stroke="#8e077b" stroke-width="1.51"/><path d="M1245,1287L1321,1413L1270,1134Z" fill="#9a1882" stroke="#9a1882" stroke-width="1.51"/><path d="M1270,1134L1321,1413L1300,866Z" fill="#9e2684" stroke="#9e2684" stroke-width="1.51"/><path d="M-227,1321L-42,1311L-173,1117Z" fill="#f399be" stroke="#f399be" stroke-width="1.51"/><path d="M-56,1676L68,1729L65,1586Z" fill="#cf7ba6" stroke="#cf7ba6" stroke-width="1.51"/><path d="M65,1586L68,1729L199,1692Z" fill="#ce75a0" stroke="#ce75a0" stroke-width="1.51"/><path d="M68,1729L167,1797L199,1692Z" fill="#c7709d" stroke="#c7709d" stroke-width="1.51"/><path d="M619,347L584,231L466,367Z" fill="#fa99b2" stroke="#fa99b2" stroke-width="1.51"/><path d="M345,344L168,251L197,385Z" fill="#fcbdbf" stroke="#fcbdbf" stroke-width="1.51"/><path d="M710,180L619,347L736,367Z" fill="#f38db0" stroke="#f38db0" stroke-width="1.51"/><path d="M-227,1027L-227,1321L-173,1117Z" fill="#f7a3c3" stroke="#f7a3c3" stroke-width="1.51"/><path d="M-196,580L-190,718L-93,636Z" fill="#fdc6ce" stroke="#fdc6ce" stroke-width="1.51"/><path d="M-93,636L-190,718L-34,792Z" fill="#febec9" stroke="#febec9" stroke-width="1.51"/><path d="M584,231L470,235L466,367Z" fill="#fca1b5" stroke="#fca1b5" stroke-width="1.51"/><path d="M197,385L62,314L31,454Z" fill="#fcc6c2" stroke="#fcc6c2" stroke-width="1.51"/><path d="M-243,1405L-109,1582L-32,1402Z" fill="#e28cb4" stroke="#e28cb4" stroke-width="1.51"/><path d="M1107,385L994,323L1032,524Z" fill="#c96d9d" stroke="#c96d9d" stroke-width="1.51"/><path d="M854,374L710,180L736,367Z" fill="#ec85ad" stroke="#ec85ad" stroke-width="1.51"/><path d="M1176,459L1032,524L1154,616Z" fill="#be6399" stroke="#be6399" stroke-width="1.51"/><path d="M1294,517L1176,459L1154,616Z" fill="#b35f97" stroke="#b35f97" stroke-width="1.51"/><path d="M1131,1596L1267,1585L1173,1452Z" fill="#90017a" stroke="#90017a" stroke-width="1.51"/><path d="M1276,1727L1267,1585L1131,1596Z" fill="#850077" stroke="#850077" stroke-width="1.51"/><path d="M1176,459L1107,385L1032,524Z" fill="#c1689a" stroke="#c1689a" stroke-width="1.51"/><path d="M1292,738L1300,592L1154,616Z" fill="#ad5693" stroke="#ad5693" stroke-width="1.51"/><path d="M1300,866L1300,592L1292,738Z" fill="#a74d8f" stroke="#a74d8f" stroke-width="1.51"/><path d="M1321,1413L1300,592L1300,866Z" fill="#a53687" stroke="#a53687" stroke-width="1.51"/><path d="M1052,1824L1136,1734L969,1688Z" fill="#91017a" stroke="#91017a" stroke-width="1.51"/><path d="M68,1729L99,1802L167,1797Z" fill="#c4719f" stroke="#c4719f" stroke-width="1.51"/><path d="M209,2003L353,1991L370,1859Z" fill="#b35a95" stroke="#b35a95" stroke-width="1.51"/><path d="M-104,1868L99,1802L68,1729Z" fill="#c377a5" stroke="#c377a5" stroke-width="1.51"/><path d="M-109,1582L-56,1676L65,1586Z" fill="#d480aa" stroke="#d480aa" stroke-width="1.51"/><path d="M353,1991L515,1944L370,1859Z" fill="#b44d91" stroke="#b44d91" stroke-width="1.51"/><path d="M370,1859L515,1944L497,1790Z" fill="#b94890" stroke="#b94890" stroke-width="1.51"/><path d="M889,1817L1052,1824L969,1688Z" fill="#99017b" stroke="#99017b" stroke-width="1.51"/><path d="M-109,1582L-179,1690L-56,1676Z" fill="#d284ae" stroke="#d284ae" stroke-width="1.51"/><path d="M-227,1321L-243,1405L-32,1402Z" fill="#e993ba" stroke="#e993ba" stroke-width="1.51"/><path d="M-227,1027L-243,1405L-227,1321Z" fill="#f49ec2" stroke="#f49ec2" stroke-width="1.51"/><path d="M1023,1946L1052,1824L889,1817Z" fill="#8f017a" stroke="#8f017a" stroke-width="1.51"/><path d="M472,102L357,196L470,235Z" fill="#fcafbe" stroke="#fcafbe" stroke-width="1.51"/><path d="M470,235L357,196L345,344Z" fill="#fcb1bc" stroke="#fcb1bc" stroke-width="1.51"/><path d="M916,212L710,180L854,374Z" fill="#e683aa" stroke="#e683aa" stroke-width="1.51"/><path d="M584,231L472,102L470,235Z" fill="#fda5ba" stroke="#fda5ba" stroke-width="1.51"/><path d="M31,454L-100,461L52,616Z" fill="#fcc5c7" stroke="#fcc5c7" stroke-width="1.51"/><path d="M-22,324L-100,461L31,454Z" fill="#fdcdcb" stroke="#fdcdcb" stroke-width="1.51"/><path d="M1300,592L1294,517L1154,616Z" fill="#ae5b94" stroke="#ae5b94" stroke-width="1.51"/><path d="M1176,459L1250,365L1107,385Z" fill="#b8699a" stroke="#b8699a" stroke-width="1.51"/><path d="M-100,461L-196,580L-93,636Z" fill="#fdcace" stroke="#fdcace" stroke-width="1.51"/><path d="M-190,718L-196,580L-212,899Z" fill="#fec1ce" stroke="#fec1ce" stroke-width="1.51"/><path d="M-212,899L-204,510L-227,1027Z" fill="#ffbccb" stroke="#ffbccb" stroke-width="1.51"/><path d="M168,251L62,314L197,385Z" fill="#fcc6c2" stroke="#fcc6c2" stroke-width="1.51"/><path d="M357,196L168,251L345,344Z" fill="#fcbbc0" stroke="#fcbbc0" stroke-width="1.51"/><path d="M515,1944L642,1985L645,1815Z" fill="#b0328a" stroke="#b0328a" stroke-width="1.51"/><path d="M987,184L994,323L1178,195Z" fill="#c977a3" stroke="#c977a3" stroke-width="1.51"/><path d="M987,184L916,212L994,323Z" fill="#d57aa4" stroke="#d57aa4" stroke-width="1.51"/><path d="M994,323L916,212L854,374Z" fill="#da7aa3" stroke="#da7aa3" stroke-width="1.51"/><path d="M642,1985L701,1987L645,1815Z" fill="#ab2988" stroke="#ab2988" stroke-width="1.51"/><path d="M-243,1405L-184,1607L-109,1582Z" fill="#dd8cb4" stroke="#dd8cb4" stroke-width="1.51"/><path d="M-56,1676L-104,1868L68,1729Z" fill="#c77ca9" stroke="#c77ca9" stroke-width="1.51"/><path d="M1052,1824L1114,1828L1136,1734Z" fill="#860179" stroke="#860179" stroke-width="1.51"/><path d="M1136,1734L1276,1727L1131,1596Z" fill="#850078" stroke="#850078" stroke-width="1.51"/><path d="M1023,1946L1114,1828L1052,1824Z" fill="#850179" stroke="#850179" stroke-width="1.51"/><path d="M515,1944L578,2074L642,1985Z" fill="#ab3388" stroke="#ab3388" stroke-width="1.51"/><path d="M642,1985L699,2124L701,1987Z" fill="#a22485" stroke="#a22485" stroke-width="1.51"/><path d="M209,2003L370,1859L167,1797Z" fill="#b96298" stroke="#b96298" stroke-width="1.51"/><path d="M209,2003L167,1797L112,1979Z" fill="#b7699a" stroke="#b7699a" stroke-width="1.51"/><path d="M38,182L-22,324L62,314Z" fill="#fdd0cc" stroke="#fdd0cc" stroke-width="1.51"/><path d="M62,314L-22,324L31,454Z" fill="#fdccc8" stroke="#fdccc8" stroke-width="1.51"/><path d="M-100,461L-204,510L-196,580Z" fill="#fecfd1" stroke="#fecfd1" stroke-width="1.51"/><path d="M-204,360L-204,510L-100,461Z" fill="#fed3d2" stroke="#fed3d2" stroke-width="1.51"/><path d="M-196,580L-204,510L-212,899Z" fill="#fec7d0" stroke="#fec7d0" stroke-width="1.51"/><path d="M701,1987L909,1964L759,1789Z" fill="#a21683" stroke="#a21683" stroke-width="1.51"/><path d="M1244,1863L1276,1727L1136,1734Z" fill="#790076" stroke="#790076" stroke-width="1.51"/><path d="M1267,1585L1276,1727L1321,1413Z" fill="#830076" stroke="#830076" stroke-width="1.51"/><path d="M1244,1863L1136,1734L1114,1828Z" fill="#7d0177" stroke="#7d0177" stroke-width="1.51"/><path d="M357,196L202,124L168,251Z" fill="#fcc3c5" stroke="#fcc3c5" stroke-width="1.51"/><path d="M168,251L38,182L62,314Z" fill="#fdccc8" stroke="#fdccc8" stroke-width="1.51"/><path d="M603,96L472,102L584,231Z" fill="#fca2ba" stroke="#fca2ba" stroke-width="1.51"/><path d="M603,96L584,231L710,180Z" fill="#f799b7" stroke="#f799b7" stroke-width="1.51"/><path d="M764,87L603,96L710,180Z" fill="#f395b7" stroke="#f395b7" stroke-width="1.51"/><path d="M-184,1607L-179,1690L-109,1582Z" fill="#d487b1" stroke="#d487b1" stroke-width="1.51"/><path d="M-236,1854L-179,1690L-184,1607Z" fill="#cc87b3" stroke="#cc87b3" stroke-width="1.51"/><path d="M1294,517L1250,365L1176,459Z" fill="#b06497" stroke="#b06497" stroke-width="1.51"/><path d="M916,212L764,87L710,180Z" fill="#ea89b1" stroke="#ea89b1" stroke-width="1.51"/><path d="M1178,195L994,323L1107,385Z" fill="#c3729f" stroke="#c3729f" stroke-width="1.51"/><path d="M909,1964L1023,1946L889,1817Z" fill="#91017a" stroke="#91017a" stroke-width="1.51"/><path d="M853,53L764,87L916,212Z" fill="#e588b0" stroke="#e588b0" stroke-width="1.51"/><path d="M429,-62L365,73L472,102Z" fill="#fdb6c5" stroke="#fdb6c5" stroke-width="1.51"/><path d="M112,1979L167,1797L99,1802Z" fill="#bc6e9d" stroke="#bc6e9d" stroke-width="1.51"/><path d="M496,2108L578,2074L515,1944Z" fill="#aa3889" stroke="#aa3889" stroke-width="1.51"/><path d="M496,2108L515,1944L353,1991Z" fill="#ad458d" stroke="#ad458d" stroke-width="1.51"/><path d="M701,1987L881,2136L909,1964Z" fill="#94107e" stroke="#94107e" stroke-width="1.51"/><path d="M1022,2076L1135,1964L1023,1946Z" fill="#7b0076" stroke="#7b0076" stroke-width="1.51"/><path d="M365,73L202,124L357,196Z" fill="#fcbfc6" stroke="#fcbfc6" stroke-width="1.51"/><path d="M209,2003L350,2058L353,1991Z" fill="#ae5994" stroke="#ae5994" stroke-width="1.51"/><path d="M472,102L365,73L357,196Z" fill="#fdb6c2" stroke="#fdb6c2" stroke-width="1.51"/><path d="M596,-25L472,102L603,96Z" fill="#fca5be" stroke="#fca5be" stroke-width="1.51"/><path d="M209,2003L213,2091L350,2058Z" fill="#ac5d94" stroke="#ac5d94" stroke-width="1.51"/><path d="M-75,1939L112,1979L99,1802Z" fill="#b972a1" stroke="#b972a1" stroke-width="1.51"/><path d="M94,115L38,182L168,251Z" fill="#fdcfca" stroke="#fdcfca" stroke-width="1.51"/><path d="M-22,324L-204,360L-100,461Z" fill="#fdd4d0" stroke="#fdd4d0" stroke-width="1.51"/><path d="M1178,195L1005,127L987,184Z" fill="#c97aa6" stroke="#c97aa6" stroke-width="1.51"/><path d="M987,184L1005,127L916,212Z" fill="#d57da7" stroke="#d57da7" stroke-width="1.51"/><path d="M1135,1964L1244,1863L1114,1828Z" fill="#760176" stroke="#760176" stroke-width="1.51"/><path d="M350,2058L496,2108L353,1991Z" fill="#aa4c8f" stroke="#aa4c8f" stroke-width="1.51"/><path d="M1022,2076L1023,1946L909,1964Z" fill="#850077" stroke="#850077" stroke-width="1.51"/><path d="M213,2091L496,2108L350,2058Z" fill="#a85291" stroke="#a85291" stroke-width="1.51"/><path d="M-179,1690L-104,1868L-56,1676Z" fill="#c981ad" stroke="#c981ad" stroke-width="1.51"/><path d="M-204,510L-204,360L-227,1027Z" fill="#fecad1" stroke="#fecad1" stroke-width="1.51"/><path d="M-227,1027L-215,-220L-243,1405Z" fill="#ffc3cf" stroke="#ffc3cf" stroke-width="1.51"/><path d="M-99,249L-204,360L-22,324Z" fill="#fdd7d3" stroke="#fdd7d3" stroke-width="1.51"/><path d="M1005,127L853,53L916,212Z" fill="#db81aa" stroke="#db81aa" stroke-width="1.51"/><path d="M712,-33L596,-25L603,96Z" fill="#f89fbe" stroke="#f89fbe" stroke-width="1.51"/><path d="M1023,1946L1135,1964L1114,1828Z" fill="#7e0177" stroke="#7e0177" stroke-width="1.51"/><path d="M699,2124L642,1985L578,2074Z" fill="#a22986" stroke="#a22986" stroke-width="1.51"/><path d="M38,182L-99,249L-22,324Z" fill="#fdd5d1" stroke="#fdd5d1" stroke-width="1.51"/><path d="M1250,365L1178,195L1107,385Z" fill="#b86e9d" stroke="#b86e9d" stroke-width="1.51"/><path d="M836,-49L764,87L853,53Z" fill="#e88eb5" stroke="#e88eb5" stroke-width="1.51"/><path d="M496,2108L699,2124L578,2074Z" fill="#a22f86" stroke="#a22f86" stroke-width="1.51"/><path d="M-188,112L-185,201L-99,249Z" fill="#fedfdb" stroke="#fedfdb" stroke-width="1.51"/><path d="M202,124L94,115L168,251Z" fill="#fdccc8" stroke="#fdccc8" stroke-width="1.51"/><path d="M64,-39L94,115L202,124Z" fill="#fdd3cf" stroke="#fdd3cf" stroke-width="1.51"/><path d="M32,2093L213,2091L112,1979Z" fill="#ac6999" stroke="#ac6999" stroke-width="1.51"/><path d="M112,1979L213,2091L209,2003Z" fill="#af6597" stroke="#af6597" stroke-width="1.51"/><path d="M496,2108L-29,2139L699,2124Z" fill="#a54c8e" stroke="#a54c8e" stroke-width="1.51"/><path d="M-104,1868L-75,1939L99,1802Z" fill="#bd78a7" stroke="#bd78a7" stroke-width="1.51"/><path d="M-241,1990L-75,1939L-104,1868Z" fill="#b97dac" stroke="#b97dac" stroke-width="1.51"/><path d="M365,73L313,-76L202,124Z" fill="#fdc5ca" stroke="#fdc5ca" stroke-width="1.51"/><path d="M712,-33L603,96L764,87Z" fill="#f498bb" stroke="#f498bb" stroke-width="1.51"/><path d="M881,2136L1022,2076L909,1964Z" fill="#850077" stroke="#850077" stroke-width="1.51"/><path d="M1135,1964L1274,1953L1244,1863Z" fill="#6d0073" stroke="#6d0073" stroke-width="1.51"/><path d="M836,-49L712,-33L764,87Z" fill="#ee93ba" stroke="#ee93ba" stroke-width="1.51"/><path d="M836,-49L853,53L1048,-50Z" fill="#de88b1" stroke="#de88b1" stroke-width="1.51"/><path d="M699,2124L881,2136L701,1987Z" fill="#981782" stroke="#981782" stroke-width="1.51"/><path d="M-179,1690L-236,1854L-104,1868Z" fill="#c483b0" stroke="#c483b0" stroke-width="1.51"/><path d="M-243,1405L-236,1854L-184,1607Z" fill="#d68bb4" stroke="#d68bb4" stroke-width="1.51"/><path d="M1243,2060L1274,1953L1135,1964Z" fill="#680072" stroke="#680072" stroke-width="1.51"/><path d="M1244,1863L1274,1953L1276,1727Z" fill="#6d0073" stroke="#6d0073" stroke-width="1.51"/><path d="M1276,1727L1274,1953L1321,1413Z" fill="#770075" stroke="#770075" stroke-width="1.51"/><path d="M1178,195L1166,44L1005,127Z" fill="#c179a7" stroke="#c179a7" stroke-width="1.51"/><path d="M1250,365L1270,178L1178,195Z" fill="#b26f9e" stroke="#b26f9e" stroke-width="1.51"/><path d="M1306,119L1270,178L1250,365Z" fill="#ac6e9e" stroke="#ac6e9e" stroke-width="1.51"/><path d="M1306,119L1250,365L1294,517Z" fill="#ab6898" stroke="#ab6898" stroke-width="1.51"/><path d="M596,-25L429,-62L472,102Z" fill="#fdaec2" stroke="#fdaec2" stroke-width="1.51"/><path d="M612,-150L429,-62L596,-25Z" fill="#feacc3" stroke="#feacc3" stroke-width="1.51"/><path d="M712,-33L612,-150L596,-25Z" fill="#f8a2c0" stroke="#f8a2c0" stroke-width="1.51"/><path d="M1048,-50L853,53L1005,127Z" fill="#d683ad" stroke="#d683ad" stroke-width="1.51"/><path d="M-39,45L-99,249L38,182Z" fill="#fddad5" stroke="#fddad5" stroke-width="1.51"/><path d="M-99,249L-185,201L-204,360Z" fill="#fedcd8" stroke="#fedcd8" stroke-width="1.51"/><path d="M-39,45L38,182L94,115Z" fill="#fdd7d3" stroke="#fdd7d3" stroke-width="1.51"/><path d="M-75,1939L32,2093L112,1979Z" fill="#b171a1" stroke="#b171a1" stroke-width="1.51"/><path d="M213,2091L-29,2139L496,2108Z" fill="#a75e94" stroke="#a75e94" stroke-width="1.51"/><path d="M699,2124L-29,2139L881,2136Z" fill="#a33988" stroke="#a33988" stroke-width="1.51"/><path d="M-29,2139L32,2093L-75,1939Z" fill="#ad73a3" stroke="#ad73a3" stroke-width="1.51"/><path d="M881,2136L1162,2077L1022,2076Z" fill="#780074" stroke="#780074" stroke-width="1.51"/><path d="M1022,2076L1162,2077L1135,1964Z" fill="#720074" stroke="#720074" stroke-width="1.51"/><path d="M429,-62L313,-76L365,73Z" fill="#febfca" stroke="#febfca" stroke-width="1.51"/><path d="M320,-139L313,-76L429,-62Z" fill="#fec4cd" stroke="#fec4cd" stroke-width="1.51"/><path d="M1270,178L1166,44L1178,195Z" fill="#b574a4" stroke="#b574a4" stroke-width="1.51"/><path d="M64,-39L-39,45L94,115Z" fill="#fddad6" stroke="#fddad6" stroke-width="1.51"/><path d="M1162,2077L1243,2060L1135,1964Z" fill="#690072" stroke="#690072" stroke-width="1.51"/><path d="M881,2136L1243,2060L1162,2077Z" fill="#6f0073" stroke="#6f0073" stroke-width="1.51"/><path d="M1270,178L1306,119L1166,44Z" fill="#b074a3" stroke="#b074a3" stroke-width="1.51"/><path d="M1300,592L1306,119L1294,517Z" fill="#a96396" stroke="#a96396" stroke-width="1.51"/><path d="M1321,1413L1306,119L1300,592Z" fill="#a54e8f" stroke="#a54e8f" stroke-width="1.51"/><path d="M320,-139L205,-90L313,-76Z" fill="#fecbd0" stroke="#fecbd0" stroke-width="1.51"/><path d="M313,-76L205,-90L202,124Z" fill="#fdccce" stroke="#fdccce" stroke-width="1.51"/><path d="M705,-198L612,-150L712,-33Z" fill="#f7a1c1" stroke="#f7a1c1" stroke-width="1.51"/><path d="M1166,44L1048,-50L1005,127Z" fill="#c77fab" stroke="#c77fab" stroke-width="1.51"/><path d="M1137,-68L1048,-50L1166,44Z" fill="#c27fad" stroke="#c27fad" stroke-width="1.51"/><path d="M205,-90L64,-39L202,124Z" fill="#fdd3d0" stroke="#fdd3d0" stroke-width="1.51"/><path d="M705,-198L712,-33L836,-49Z" fill="#f198be" stroke="#f198be" stroke-width="1.51"/><path d="M-180,-8L-188,112L-39,45Z" fill="#fee4e1" stroke="#fee4e1" stroke-width="1.51"/><path d="M-39,45L-188,112L-99,249Z" fill="#fedfdb" stroke="#fedfdb" stroke-width="1.51"/><path d="M-185,201L-188,112L-204,360Z" fill="#fee0db" stroke="#fee0db" stroke-width="1.51"/><path d="M32,2093L-29,2139L213,2091Z" fill="#a86b9b" stroke="#a86b9b" stroke-width="1.51"/><path d="M-241,1990L-29,2139L-75,1939Z" fill="#b079a8" stroke="#b079a8" stroke-width="1.51"/><path d="M-236,1854L-241,1990L-104,1868Z" fill="#bb81af" stroke="#bb81af" stroke-width="1.51"/><path d="M-243,1405L-241,1990L-236,1854Z" fill="#ca88b4" stroke="#ca88b4" stroke-width="1.51"/><path d="M451,-209L320,-139L429,-62Z" fill="#febfcd" stroke="#febfcd" stroke-width="1.51"/><path d="M-42,-146L-23,-31L64,-39Z" fill="#fee0dd" stroke="#fee0dd" stroke-width="1.51"/><path d="M64,-39L-23,-31L-39,45Z" fill="#fededa" stroke="#fededa" stroke-width="1.51"/><path d="M96,-145L64,-39L205,-90Z" fill="#fdd9d4" stroke="#fdd9d4" stroke-width="1.51"/><path d="M918,-221L705,-198L836,-49Z" fill="#ea95bc" stroke="#ea95bc" stroke-width="1.51"/><path d="M1242,-74L1137,-68L1166,44Z" fill="#b97cab" stroke="#b97cab" stroke-width="1.51"/><path d="M918,-221L836,-49L1022,-191Z" fill="#dd8db5" stroke="#dd8db5" stroke-width="1.51"/><path d="M612,-150L451,-209L429,-62Z" fill="#ffb4c7" stroke="#ffb4c7" stroke-width="1.51"/><path d="M451,-209L176,-145L320,-139Z" fill="#fecad1" stroke="#fecad1" stroke-width="1.51"/><path d="M320,-139L176,-145L205,-90Z" fill="#fed0d2" stroke="#fed0d2" stroke-width="1.51"/><path d="M705,-198L451,-209L612,-150Z" fill="#fdacc6" stroke="#fdacc6" stroke-width="1.51"/><path d="M176,-145L96,-145L205,-90Z" fill="#fed8d4" stroke="#fed8d4" stroke-width="1.51"/><path d="M-23,-31L-180,-8L-39,45Z" fill="#fde3e0" stroke="#fde3e0" stroke-width="1.51"/><path d="M451,-209L96,-145L176,-145Z" fill="#fed2d3" stroke="#fed2d3" stroke-width="1.51"/><path d="M-42,-146L-180,-8L-23,-31Z" fill="#fee5e2" stroke="#fee5e2" stroke-width="1.51"/><path d="M1306,119L1242,-74L1166,44Z" fill="#b178a8" stroke="#b178a8" stroke-width="1.51"/><path d="M1022,-191L836,-49L1048,-50Z" fill="#d788b2" stroke="#d788b2" stroke-width="1.51"/><path d="M705,-198L918,-221L451,-209Z" fill="#f7a3c4" stroke="#f7a3c4" stroke-width="1.51"/><path d="M1022,-191L1048,-50L1137,-68Z" fill="#c984b0" stroke="#c984b0" stroke-width="1.51"/><path d="M1175,-195L1022,-191L1137,-68Z" fill="#c384b1" stroke="#c384b1" stroke-width="1.51"/><path d="M-241,1990L-235,2137L-29,2139Z" fill="#ab7aaa" stroke="#ab7aaa" stroke-width="1.51"/><path d="M96,-145L-42,-146L64,-39Z" fill="#fedfdb" stroke="#fedfdb" stroke-width="1.51"/><path d="M-215,-220L-42,-146L96,-145Z" fill="#fee8e4" stroke="#fee8e4" stroke-width="1.51"/><path d="M1022,-191L1175,-195L918,-221Z" fill="#ce89b4" stroke="#ce89b4" stroke-width="1.51"/><path d="M1242,-74L1175,-195L1137,-68Z" fill="#b97fae" stroke="#b97fae" stroke-width="1.51"/><path d="M1242,-74L1236,-205L1175,-195Z" fill="#b57fae" stroke="#b57fae" stroke-width="1.51"/><path d="M1175,-195L1236,-205L918,-221Z" fill="#c486b3" stroke="#c486b3" stroke-width="1.51"/><path d="M1306,119L1236,-205L1242,-74Z" fill="#af7aa9" stroke="#af7aa9" stroke-width="1.51"/><path d="M-42,-146L-215,-220L-180,-8Z" fill="#feebe8" stroke="#feebe8" stroke-width="1.51"/><path d="M-180,-8L-215,-220L-188,112Z" fill="#feebe7" stroke="#feebe7" stroke-width="1.51"/><path d="M-188,112L-215,-220L-204,360Z" fill="#fee6e3" stroke="#fee6e3" stroke-width="1.51"/><path d="M-204,360L-215,-220L-227,1027Z" fill="#fed9d6" stroke="#fed9d6" stroke-width="1.51"/><path d="M451,-209L-215,-220L96,-145Z" fill="#feded9" stroke="#feded9" stroke-width="1.51"/><path d="M918,-221L-215,-220L451,-209Z" fill="#ffc4d0" stroke="#ffc4d0" stroke-width="1.51"/></svg>