<svg id="Calque_1" data-name="Calque 1" xmlns="http://www.w3.org/2000/svg" xmlns:xlink="http://www.w3.org/1999/xlink" viewBox="0 0 734 258"><defs><style>.cls-1{fill:url(#Nouvelle_nuance_de_dégradé_1);}.cls-2{fill:url(#Nouvelle_nuance_de_dégradé_1-2);}.cls-3{fill:url(#Nouvelle_nuance_de_dégradé_1-3);}.cls-4{fill:url(#Nouvelle_nuance_de_dégradé_1-4);}.cls-5{fill:url(#Nouvelle_nuance_de_dégradé_1-5);}.cls-6{fill:#3f7737;}.cls-7{fill:url(#Nouvelle_nuance_de_dégradé_1-6);}</style><linearGradient id="Nouvelle_nuance_de_dégradé_1" x1="294.12" y1="141.1" x2="367.86" y2="214.84" gradientUnits="userSpaceOnUse"><stop offset="0" stop-color="#63bd57"/><stop offset="0.06" stop-color="#60b754"/><stop offset="0.46" stop-color="#4e9444"/><stop offset="0.79" stop-color="#437f3b"/><stop offset="1" stop-color="#3f7737"/></linearGradient><linearGradient id="Nouvelle_nuance_de_dégradé_1-2" x1="393.51" y1="141.1" x2="467.25" y2="214.84" xlink:href="#Nouvelle_nuance_de_dégradé_1"/><linearGradient id="Nouvelle_nuance_de_dégradé_1-3" x1="497.74" y1="138.96" x2="572.34" y2="213.56" xlink:href="#Nouvelle_nuance_de_dégradé_1"/><linearGradient id="Nouvelle_nuance_de_dégradé_1-4" x1="604.35" y1="130.04" x2="694.99" y2="220.67" xlink:href="#Nouvelle_nuance_de_dégradé_1"/><linearGradient id="Nouvelle_nuance_de_dégradé_1-5" x1="63.07" y1="58.08" x2="205.87" y2="200.88" xlink:href="#Nouvelle_nuance_de_dégradé_1"/><linearGradient id="Nouvelle_nuance_de_dégradé_1-6" x1="230.56" y1="80.94" x2="255.5" y2="105.87" xlink:href="#Nouvelle_nuance_de_dégradé_1"/></defs><title>cissou no border</title><path class="cls-1" d="M330.44,225.6q-27,0-39.53-5.21-6.34-2.76-6.34-5.37,0-6.67,3.9-15.62t6.83-8.95q1.62,0,11,3.58t15.78,3.58q6.42,0,8.46-.81a3.11,3.11,0,0,0,2-3.17q0-2.36-3.25-3.74a28.23,28.23,0,0,0-8.13-1.87,69,69,0,0,1-10.49-2,61.28,61.28,0,0,1-10.49-3.74,19,19,0,0,1-8.13-7.56,21.32,21.32,0,0,1-3.25-11.39q0-6.1.33-9.11a32,32,0,0,1,2.68-8.46,22.44,22.44,0,0,1,6.67-8.87q4.31-3.42,13.34-6.18A69.06,69.06,0,0,1,332.07,128q11.22,0,18.79.73a78.52,78.52,0,0,1,11.88,1.87,33.82,33.82,0,0,1,7.08,2.6q4.72,2.44,4.72,5.37,0,6.34-4.55,14.64t-7.24,8.3q-2.68,0-11.63-2.85t-13.18-2.85q-6.83,0-6.83,3.9,0,2.44,4.64,3.66t11.14,2.52a93.58,93.58,0,0,1,13.1,3.66,24.07,24.07,0,0,1,11.22,8.54q4.64,6.18,4.64,15.62Q375.83,225.6,330.44,225.6Z"/><path class="cls-2" d="M429.83,225.6q-27,0-39.53-5.21Q384,217.63,384,215q0-6.67,3.9-15.62t6.83-8.95q1.62,0,11,3.58t15.78,3.58q6.42,0,8.46-.81a3.11,3.11,0,0,0,2-3.17q0-2.36-3.25-3.74a28.22,28.22,0,0,0-8.13-1.87,69,69,0,0,1-10.49-2,61.27,61.27,0,0,1-10.49-3.74,19,19,0,0,1-8.13-7.56,21.32,21.32,0,0,1-3.25-11.39q0-6.1.33-9.11a32.07,32.07,0,0,1,2.68-8.46,22.44,22.44,0,0,1,6.67-8.87q4.31-3.42,13.34-6.18A69.06,69.06,0,0,1,431.46,128q11.22,0,18.79.73a78.52,78.52,0,0,1,11.88,1.87,33.82,33.82,0,0,1,7.08,2.6q4.72,2.44,4.72,5.37,0,6.34-4.55,14.64t-7.24,8.3q-2.68,0-11.63-2.85t-13.18-2.85q-6.83,0-6.83,3.9,0,2.44,4.64,3.66t11.14,2.52a93.58,93.58,0,0,1,13.1,3.66,24.07,24.07,0,0,1,11.22,8.54q4.64,6.18,4.64,15.62Q475.22,225.6,429.83,225.6Z"/><path class="cls-3" d="M535.08,225.6a90.79,90.79,0,0,1-21-2.11A43.06,43.06,0,0,1,498.15,216q-14.81-10.74-14.8-40,0-26,15.13-37.25,14.15-10.41,36.6-10.41a129.27,129.27,0,0,1,16.43.9A55.09,55.09,0,0,1,565.42,133a29.5,29.5,0,0,1,11.39,8q4.31,5,7.08,13.91A71.16,71.16,0,0,1,586.64,176q0,24.73-14,37.17T535.08,225.6Zm-5.69-31.72q1.14,5.86,2.36,7a5.22,5.22,0,0,0,6.51,0q1.22-1.14,2.28-7a85.13,85.13,0,0,0,1.06-14.72q0-8.86-.41-13.66a61.37,61.37,0,0,0-1-7.4,12.08,12.08,0,0,0-1.54-4.07,4.22,4.22,0,0,0-3.5-2.11,4.67,4.67,0,0,0-3.33,1.22q-1.31,1.22-2.44,7.16a94.93,94.93,0,0,0-1.14,16.84A93.46,93.46,0,0,0,529.38,193.88Z"/><path class="cls-4" d="M629.1,225.6q-18.22,0-25.46-9.43T596.4,183.3V139.06q0-3.25,9.6-6.26a67,67,0,0,1,20.17-3q14.15,0,14.15,7.32v41.32q0,12.36,1,18t4.88,5.61q5.2,0,5.21-4.39V139.06q0-3.42,10.09-6.34a78.51,78.51,0,0,1,22-2.93q11.87,0,11.88,6.34v83.77q0,2.28-10.25,3.25t-20.17,1q-9.92,0-10.09-2.6L653.18,211h-1.3a18,18,0,0,1-5.86,9.6,21,21,0,0,1-6.75,3.5A31.08,31.08,0,0,1,629.1,225.6Z"/><path class="cls-5" d="M175.85,222.39a149.41,149.41,0,0,1-22,3.51q-11.2.94-21.85.94t-16.46-.54a123.82,123.82,0,0,1-15.24-2.7,80.91,80.91,0,0,1-17.27-5.94,82.74,82.74,0,0,1-16.59-11.06,66.23,66.23,0,0,1-14.7-17.27Q38,166.14,38,129.45,38,104.91,45.69,86T64.3,56.88a88.53,88.53,0,0,1,25-16.46,109.75,109.75,0,0,1,45.59-10.25q32.91,0,47.21,5.4a32.38,32.38,0,0,1,11.6,7.55q5.12,5.13,5.13,14.84t-4.72,24.55q-4.72,14.84-13.62,14.84-2.7,0-20-4.32T137,88.72q-9.45,0-16.05,10.52t-6.61,29.94q0,19.42,5.8,30.21t15.24,10.79q6.74,0,24.41-5.53t20.64-5.53q8.36,0,13.08,15.38t4.72,24.82q0,9.45-5.8,15T175.85,222.39Z"/><path class="cls-6" d="M266.95,149.48v-2a6.46,6.46,0,0,0-5.41-6.34,18.13,18.13,0,0,0-4.78-4.93c-2.12-1.66-4.1-3.22-4.23-6.43a10.68,10.68,0,1,0-20.16-1.95,10.53,10.53,0,0,0,.65,1.92c-.12,3.22-2.11,4.77-4.23,6.43a18.13,18.13,0,0,0-4.78,4.93,6.46,6.46,0,0,0-5.41,6.34v2a6.4,6.4,0,0,0-4.18,1.72,5.9,5.9,0,0,0-1.24,1.65,5.75,5.75,0,0,0,3,7.84v57.16a6.23,6.23,0,0,0,2,4.53,7,7,0,0,0,4.83,1.88h39.71a6.58,6.58,0,0,0,6.72-6.42V160.72a6.23,6.23,0,0,0,1.7-1.16,5.78,5.78,0,0,0,1.83-4A6,6,0,0,0,266.95,149.48ZM231,138.86c2.84-2.23,5.49-4.31,5.49-9.32a1.62,1.62,0,0,0-.23-.85,7.39,7.39,0,0,1,11.91-8.41h0a7.4,7.4,0,0,1,1.39,8.53,1.63,1.63,0,0,0-.17.73c0,5,2.65,7.09,5.49,9.32a24.61,24.61,0,0,1,2.62,2.28H228.38A24.69,24.69,0,0,1,231,138.86Zm-9,8.47a3.14,3.14,0,0,1,3.16-3.12h35.54a3.14,3.14,0,0,1,3.16,3.12v2.1H222v-2.11ZM266,218a3.17,3.17,0,0,1-3.16,3.15H222.7a3.16,3.16,0,0,1-3.16-3.15v-4.85h11a1.7,1.7,0,0,0,0-3.39h-11V203h4.65a1.76,1.76,0,0,0,1.09-.27,1.58,1.58,0,0,0,.69-.92,1.71,1.71,0,0,0-1.78-2.2h-4.65v-6.77h11a1.7,1.7,0,0,0,0-3.39h-11v-6.77h4.65a1.76,1.76,0,0,0,1.08-.27,1.58,1.58,0,0,0,.69-.92,1.71,1.71,0,0,0-1.78-2.2h-4.65v-6.77h11a1.7,1.7,0,0,0,0-3.39h-11v-7.7H266V218Zm3.14-62.41a2.68,2.68,0,0,1-2.71,2.46H219.16a2.62,2.62,0,0,1,0-5.23h47.4A2.62,2.62,0,0,1,269.16,155.6Z"/><circle class="cls-7" cx="243.03" cy="93.4" r="17.63"/></svg>